<svg width="78" height="84" viewBox="0 0 78 84" fill="none" xmlns="http://www.w3.org/2000/svg">
<path fill-rule="evenodd" clip-rule="evenodd" d="M42.7304 0.939159H43.6348H51.0956H51.4702L51.7351 1.20403L57.8007 7.26956H64.6608H65.0795L65.3504 7.58881L71.6808 15.0497L71.8956 15.3028V15.6348V15.635V15.6353V15.6357V15.6361V15.6367V15.6375V15.6383V15.6392V15.6402V15.6414V15.6426V15.644V15.6454V15.647V15.6486V15.6504V15.6523V15.6543V15.6564V15.6585V15.6608V15.6632V15.6657V15.6683V15.671V15.6738V15.6767V15.6797V15.6828V15.686V15.6893V15.6926V15.6961V15.6997V15.7034V15.7072V15.7111V15.715V15.7191V15.7233V15.7275V15.7319V15.7363V15.7409V15.7455V15.7502V15.7551V15.76V15.765V15.7701V15.7753V15.7805V15.7859V15.7914V15.7969V15.8026V15.8083V15.8141V15.82V15.826V15.8321V15.8383V15.8445V15.8509V15.8573V15.8638V15.8704V15.8771V15.8839V15.8907V15.8976V15.9047V15.9118V15.919V15.9262V15.9336V15.941V15.9485V15.9561V15.9638V15.9716V15.9794V15.9873V15.9953V16.0034V16.0115V16.0197V16.028V16.0364V16.0449V16.0534V16.062V16.0707V16.0795V16.0883V16.0972V16.1062V16.1153V16.1244V16.1336V16.1429V16.1523V16.1617V16.1712V16.1807V16.1904V16.2001V16.2099V16.2197V16.2296V16.2396V16.2497V16.2598V16.27V16.2802V16.2905V16.3009V16.3114V16.3219V16.3325V16.3431V16.3539V16.3646V16.3755V16.3864V16.3974V16.4084V16.4195V16.4307V16.4419V16.4532V16.4645V16.4759V16.4874V16.4989V16.5105V16.5221V16.5338V16.5456V16.5574V16.5693V16.5812V16.5932V16.6053V16.6174V16.6295V16.6418V16.654V16.6664V16.6787V16.6912V16.7037V16.7162V16.7288V16.7414V16.7541V16.7669V16.7797V16.7925V16.8054V16.8184V16.8314V16.8444V16.8575V16.8707V16.8839V16.8971V16.9104V16.9238V16.9371V16.9506V16.9641V16.9776V16.9912V17.0048V17.0184V17.0321V17.0459V17.0597V17.0735V17.0874V17.1013V17.1153V17.1293V17.1433V17.1574V17.1715V17.1857V17.1999V17.2141V17.2284V17.2427V17.2571V17.2715V17.2859V17.3004V17.3149V17.3295V17.344V17.3587V17.3733V17.388V17.4027V17.4175V17.4323V17.4471V17.462V17.4768V17.4918V17.5067V17.5217V17.5367V17.5518V17.5668V17.5819V17.5971V17.6122V17.6274V17.6427V17.6579V17.6732V17.6885V17.7038V17.7192V17.7346V17.75V17.7654V17.7809V17.7964V17.8119V17.8274V17.843V17.8586V17.8742V17.8898V17.9054V17.9211V17.9368V17.9525V17.9683V17.984V17.9998V18.0156V18.0314V18.0472V18.0631V18.079V18.0948V18.1107V18.1267V18.1426V18.1586V18.1745V18.1905V18.2065V18.2225V18.2386V18.2546V18.2707V18.2867V18.3028V18.3189V18.335V18.3511V18.3673V18.3834V18.3995V18.4157V18.4319V18.4481V18.4642V18.4804V18.4966V18.5129V18.5291V18.5453V18.5616V18.5778V18.594V18.6103V18.6266V18.6428V18.6591V18.6754V18.6916V18.7079V18.7242V18.7405V18.7568V18.7731V18.7894V18.8057V18.8219V18.8382V18.8545V18.8708V18.8871V18.9034V18.9197V18.936V18.9523V18.9686V18.9848V19.0011V19.0174V19.0337V19.0499V19.0662V19.0825V19.0987V19.115V19.1312V19.1474V19.1636V19.1799V19.1961V19.2123V19.2285V19.2447V19.2608V19.277V19.2931V19.3093V19.3254V19.3416V19.3577V19.3738V19.3898V19.4059V19.422V19.438V19.4541V19.4701V19.4861V19.5021V19.5181V19.534V19.55V19.5659V19.5818V19.5977V19.6136V19.6294V19.6453V19.6611V19.6769V19.6927V19.7084V19.7242V19.7399V19.7556V19.7713V19.787V19.8026V19.8182V19.8338V19.8494V19.8649V19.8804V19.8959V19.9114V19.9268V19.9423V19.9577V19.973V19.9884V20.0037V20.019V20.0343V20.0495V20.0647V20.0799V20.095V20.1101V20.1252V20.1403V20.1553V20.1703V20.1853V20.2002V20.2151V20.23V20.2448V20.2596V20.2744V20.2891V20.3038V20.3185V20.3331V20.3477V20.3623V20.3768V20.3913V20.4058V20.4202V20.4345V20.4489V20.4632V20.4774V20.4917V20.5058V20.52V20.5341V20.5482V20.5622V20.5762V20.5901V20.604V20.6178V20.6316V20.6454V20.6591V20.6728V20.6864V20.7V20.7136V20.7271V20.7405V20.7539V20.7673V20.7806V20.7939V20.8071V20.8203V20.8334V20.8464V20.8595V20.8724V20.8854V20.8982V20.9111V20.9238V20.9365V20.9492V20.9618V20.9744V20.9869V20.9994V21.0118V21.0241V21.0364V21.0486V21.0608V21.0729V21.085V21.097V21.109V21.1209V21.1327V21.1445V21.1562V21.1679V21.1795V21.1911V21.2026V21.214V21.2254V21.2367V21.2479V21.2591V21.2702V21.2813V21.2923V21.3032V21.3141V21.3249V21.3356V21.3463V21.3569V21.3675V21.378V21.3884V21.3921L77.7678 27.9167L78 28.1747V28.5217V37.3391V37.6977L77.7542 37.9589L74.6504 41.2567L77.827 45.6246L78 45.8624V46.1565V55.426V55.8107L77.7229 56.0774L71.8956 61.6889V68.7652V69.1131L71.6624 69.3713L65.332 76.38L65.0626 76.6782H64.6608H57.819L51.7568 83.1735L51.4886 83.4608H51.0956H43.6348H42.7304V82.5564V59.2695V58.3652H43.6348H56.5217V52.0347V31.3651L50.7026 25.1304H43.6348H42.7304V24.2261V1.84351V0.939159ZM58.3304 31.913V51.1304H64.9634C65.3543 50.4546 66.0849 50 66.9217 50C68.1704 50 69.1826 51.0122 69.1826 52.2609C69.1826 53.5095 68.1704 54.5218 66.9217 54.5218C65.9094 54.5218 65.0524 53.8564 64.7643 52.9391H58.3304V59.2695V60.1739H57.4261H44.5391V81.6521H50.7026L56.7649 75.1568L57.0331 74.8695H57.4261H64.259L70.0869 68.4172V62.2086H62.6703L58.712 68.4289C58.758 68.6087 58.7824 68.7971 58.7824 68.9911C58.7824 70.2398 57.7702 71.252 56.5216 71.252C55.2729 71.252 54.2607 70.2398 54.2607 68.9911C54.2607 67.7425 55.2729 66.7303 56.5216 66.7303C56.8744 66.7303 57.2083 66.8111 57.5059 66.9552L61.4109 60.8188L61.6774 60.3999H62.1739H70.6266L76.1913 55.0414V46.4505L73.0177 42.0869H66.6191C66.2282 42.7627 65.4975 43.2173 64.6607 43.2173C63.412 43.2173 62.3998 42.2051 62.3998 40.9565C62.3998 39.7078 63.412 38.6956 64.6607 38.6956C65.673 38.6956 66.53 39.361 66.818 40.2782H73.0875L76.1913 36.9804V28.8687L70.5885 22.6435H62.1739H61.7316L61.46 22.2943L56.9519 16.4982C56.8126 16.5251 56.6687 16.5391 56.5216 16.5391C55.2729 16.5391 54.2607 15.5269 54.2607 14.2783C54.2607 13.0296 55.2729 12.0174 56.5216 12.0174C57.7702 12.0174 58.7824 13.0296 58.7824 14.2783C58.7824 14.7155 58.6583 15.1238 58.4434 15.4697L62.6162 20.8348H70.0869V20.8334V20.8203V20.8071V20.7939V20.7806V20.7673V20.7539V20.7405V20.7271V20.7136V20.7V20.6864V20.6728V20.6591V20.6454V20.6316V20.6178V20.604V20.5901V20.5762V20.5622V20.5482V20.5341V20.52V20.5058V20.4917V20.4774V20.4632V20.4489V20.4345V20.4202V20.4058V20.3913V20.3768V20.3623V20.3477V20.3331V20.3185V20.3038V20.2891V20.2744V20.2596V20.2448V20.23V20.2151V20.2002V20.1853V20.1703V20.1553V20.1403V20.1252V20.1101V20.095V20.0799V20.0647V20.0495V20.0343V20.019V20.0037V19.9884V19.973V19.9577V19.9423V19.9268V19.9114V19.8959V19.8804V19.8649V19.8494V19.8338V19.8182V19.8026V19.787V19.7713V19.7556V19.7399V19.7242V19.7084V19.6927V19.6769V19.6611V19.6453V19.6294V19.6136V19.5977V19.5818V19.5659V19.55V19.534V19.5181V19.5021V19.4861V19.4701V19.4541V19.438V19.422V19.4059V19.3898V19.3738V19.3577V19.3416V19.3254V19.3093V19.2931V19.277V19.2608V19.2447V19.2285V19.2123V19.1961V19.1799V19.1636V19.1474V19.1312V19.115V19.0987V19.0825V19.0662V19.0499V19.0337V19.0174V19.0011V18.9848V18.9686V18.9523V18.936V18.9197V18.9034V18.8871V18.8708V18.8545V18.8382V18.8219V18.8057V18.7894V18.7731V18.7568V18.7405V18.7242V18.7079V18.6916V18.6754V18.6591V18.6428V18.6266V18.6103V18.594V18.5778V18.5616V18.5453V18.5291V18.5129V18.4966V18.4804V18.4642V18.4481V18.4319V18.4157V18.3995V18.3834V18.3673V18.3511V18.335V18.3189V18.3028V18.2867V18.2707V18.2546V18.2386V18.2225V18.2065V18.1905V18.1745V18.1586V18.1426V18.1267V18.1107V18.0948V18.079V18.0631V18.0472V18.0314V18.0156V17.9998V17.984V17.9683V17.9525V17.9368V17.9211V17.9054V17.8898V17.8742V17.8586V17.843V17.8274V17.8119V17.7964V17.7809V17.7654V17.75V17.7346V17.7192V17.7038V17.6885V17.6732V17.6579V17.6427V17.6274V17.6122V17.5971V17.5819V17.5668V17.5518V17.5367V17.5217V17.5067V17.4918V17.4768V17.462V17.4471V17.4323V17.4175V17.4027V17.388V17.3733V17.3587V17.344V17.3295V17.3149V17.3004V17.2859V17.2715V17.2571V17.2427V17.2284V17.2141V17.1999V17.1857V17.1715V17.1574V17.1433V17.1293V17.1153V17.1013V17.0874V17.0735V17.0597V17.0459V17.0321V17.0184V17.0048V16.9912V16.9776V16.9641V16.9506V16.9371V16.9238V16.9104V16.8971V16.8839V16.8707V16.8575V16.8444V16.8314V16.8184V16.8054V16.7925V16.7797V16.7669V16.7541V16.7414V16.7288V16.7162V16.7037V16.6912V16.6787V16.6664V16.654V16.6418V16.6295V16.6174V16.6053V16.5932V16.5812V16.5693V16.5574V16.5456V16.5338V16.5221V16.5105V16.4989V16.4874V16.4759V16.4645V16.4532V16.4419V16.4307V16.4195V16.4084V16.3974V16.3864V16.3755V16.3646V16.3539V16.3431V16.3325V16.3219V16.3114V16.3009V16.2905V16.2802V16.27V16.2598V16.2497V16.2396V16.2296V16.2197V16.2099V16.2001V16.1904V16.1807V16.1712V16.1617V16.1523V16.1429V16.1336V16.1244V16.1153V16.1062V16.0972V16.0883V16.0795V16.0707V16.062V16.0534V16.0449V16.0364V16.028V16.0197V16.0115V16.0034V15.9953V15.9873V15.9794V15.9716V15.9667L64.2421 9.07825H57.4261H57.0515L56.7866 8.81338L50.721 2.74785H44.5391V23.3218H51.0956H51.4886L51.7568 23.609L57.819 30.1043H66.2052C66.554 29.3057 67.3508 28.7475 68.278 28.7475C69.5267 28.7475 70.5389 29.7597 70.5389 31.0084C70.5389 32.257 69.5267 33.2692 68.278 33.2692C67.351 33.2692 66.5544 32.7113 66.2054 31.913H58.3304ZM22.6085 35.3044V37.4364L24.1414 35.9546L30.924 29.3981L32.5321 27.8435H30.2954H23.5128H22.6085V28.7478V35.3044ZM24.4172 29.6522H28.0587L24.4172 33.1724V29.6522ZM55.165 50V47.868L53.6321 49.3498L46.8495 55.9063L45.2413 57.4609H47.4781H54.2607H55.165V56.5565V50ZM53.3563 55.6522H49.7148L53.3563 52.132V55.6522ZM34.3651 83.6868H35.2695V82.7824V60.3998V59.4955H34.3651H27.2973L21.4782 53.2608V32.5912V26.2608H34.3651H35.2695V25.3564V2.06947V1.16512H34.3651H26.9043H26.5113L26.2431 1.45242L20.1809 7.94772H13.3391H12.9373L12.6679 8.2459L6.33752 15.2546L6.10429 15.5128V15.8608V22.937L0.277004 28.5485L-4.95911e-05 28.8153V29.1999V38.4694V38.7635L0.172916 39.0013L3.34955 43.3692L0.24575 46.667L-4.95911e-05 46.9282V47.2868V56.1042V56.4512L0.232101 56.7092L6.10429 63.2338V63.2375V63.2479V63.2584V63.269V63.2796V63.2903V63.301V63.3118V63.3227V63.3336V63.3446V63.3557V63.3668V63.378V63.3892V63.4005V63.4119V63.4233V63.4348V63.4464V63.458V63.4697V63.4814V63.4932V63.505V63.5169V63.5289V63.5409V63.553V63.5651V63.5773V63.5895V63.6018V63.6142V63.6266V63.639V63.6515V63.6641V63.6767V63.6894V63.7021V63.7149V63.7277V63.7405V63.7535V63.7664V63.7795V63.7925V63.8057V63.8188V63.832V63.8453V63.8586V63.872V63.8854V63.8988V63.9123V63.9259V63.9395V63.9531V63.9668V63.9805V63.9943V64.0081V64.0219V64.0358V64.0498V64.0637V64.0778V64.0918V64.1059V64.1201V64.1342V64.1485V64.1627V64.177V64.1914V64.2057V64.2202V64.2346V64.2491V64.2636V64.2782V64.2928V64.3074V64.3221V64.3368V64.3515V64.3663V64.3811V64.3959V64.4108V64.4257V64.4406V64.4556V64.4706V64.4856V64.5007V64.5158V64.5309V64.546V64.5612V64.5764V64.5917V64.6069V64.6222V64.6375V64.6529V64.6682V64.6836V64.6991V64.7145V64.73V64.7455V64.761V64.7765V64.7921V64.8077V64.8233V64.839V64.8546V64.8703V64.886V64.9017V64.9175V64.9332V64.949V64.9648V64.9806V64.9965V65.0123V65.0282V65.0441V65.06V65.0759V65.0919V65.1078V65.1238V65.1398V65.1558V65.1718V65.1879V65.2039V65.22V65.2361V65.2521V65.2682V65.2844V65.3005V65.3166V65.3328V65.3489V65.3651V65.3813V65.3974V65.4136V65.4298V65.446V65.4623V65.4785V65.4947V65.511V65.5272V65.5434V65.5597V65.576V65.5922V65.6085V65.6248V65.6411V65.6573V65.6736V65.6899V65.7062V65.7225V65.7388V65.7551V65.7714V65.7877V65.804V65.8203V65.8365V65.8528V65.8691V65.8854V65.9017V65.918V65.9343V65.9505V65.9668V65.9831V65.9994V66.0156V66.0319V66.0481V66.0644V66.0806V66.0968V66.113V66.1293V66.1455V66.1617V66.1779V66.194V66.2102V66.2264V66.2425V66.2587V66.2748V66.2909V66.307V66.3231V66.3392V66.3553V66.3713V66.3874V66.4034V66.4194V66.4354V66.4514V66.4674V66.4833V66.4992V66.5152V66.5311V66.547V66.5628V66.5787V66.5945V66.6103V66.6261V66.6419V66.6576V66.6734V66.6891V66.7048V66.7205V66.7361V66.7517V66.7673V66.7829V66.7985V66.814V66.8295V66.845V66.8605V66.8759V66.8913V66.9067V66.9221V66.9374V66.9527V66.968V66.9832V66.9985V67.0137V67.0288V67.044V67.0591V67.0742V67.0892V67.1042V67.1192V67.1341V67.1491V67.164V67.1788V67.1936V67.2084V67.2232V67.2379V67.2526V67.2672V67.2819V67.2964V67.311V67.3255V67.34V67.3544V67.3688V67.3832V67.3975V67.4118V67.426V67.4402V67.4544V67.4685V67.4826V67.4966V67.5106V67.5246V67.5385V67.5524V67.5662V67.58V67.5938V67.6075V67.6211V67.6348V67.6483V67.6618V67.6753V67.6888V67.7021V67.7155V67.7288V67.742V67.7552V67.7684V67.7815V67.7945V67.8075V67.8205V67.8334V67.8462V67.859V67.8718V67.8845V67.8971V67.9097V67.9223V67.9347V67.9472V67.9596V67.9719V67.9841V67.9964V68.0085V68.0206V68.0327V68.0447V68.0566V68.0685V68.0803V68.0921V68.1038V68.1154V68.127V68.1385V68.15V68.1614V68.1727V68.184V68.1952V68.2064V68.2175V68.2285V68.2395V68.2504V68.2613V68.272V68.2828V68.2934V68.304V68.3145V68.325V68.3354V68.3457V68.3559V68.3661V68.3763V68.3863V68.3963V68.4062V68.4161V68.4258V68.4355V68.4452V68.4547V68.4642V68.4737V68.483V68.4923V68.5015V68.5106V68.5197V68.5287V68.5376V68.5464V68.5552V68.5639V68.5725V68.581V68.5895V68.5979V68.6062V68.6144V68.6225V68.6306V68.6386V68.6465V68.6544V68.6621V68.6698V68.6774V68.6849V68.6923V68.6997V68.7069V68.7141V68.7212V68.7283V68.7352V68.7421V68.7488V68.7555V68.7621V68.7686V68.775V68.7814V68.7876V68.7938V68.7999V68.8059V68.8118V68.8176V68.8233V68.829V68.8345V68.84V68.8454V68.8506V68.8558V68.8609V68.8659V68.8709V68.8757V68.8804V68.885V68.8896V68.894V68.8984V68.9026V68.9068V68.9109V68.9149V68.9187V68.9225V68.9262V68.9298V68.9333V68.9367V68.9399V68.9431V68.9462V68.9492V68.9521V68.9549V68.9576V68.9602V68.9627V68.9651V68.9674V68.9696V68.9716V68.9736V68.9755V68.9773V68.9789V68.9805V68.9819V68.9833V68.9845V68.9857V68.9867V68.9876V68.9884V68.9892V68.9898V68.9903V68.9906V68.9909V68.9911V69.3231L6.31907 69.5762L12.6495 77.0371L12.9204 77.3564H13.3391H20.1993L26.2648 83.4219L26.5297 83.6868H26.9043H34.3651ZM19.6695 33.4955V52.7129H12.2085C11.796 52.1639 11.1394 51.8088 10.3998 51.8088C9.1512 51.8088 8.13897 52.8211 8.13897 54.0697C8.13897 55.3184 9.1512 56.3306 10.3998 56.3306C11.4937 56.3306 12.4062 55.5537 12.6155 54.5216H20.1809L26.2431 61.0169L26.5113 61.3042H26.9043H33.4608V81.8781H27.2789L21.2133 75.8125L20.9484 75.5477H20.5738H13.7578L7.91298 68.6592V68.6544V68.6465V68.6386V68.6306V68.6225V68.6144V68.6062V68.5979V68.5895V68.581V68.5725V68.5639V68.5552V68.5464V68.5376V68.5287V68.5197V68.5106V68.5015V68.4923V68.483V68.4737V68.4642V68.4547V68.4452V68.4355V68.4258V68.4161V68.4062V68.3963V68.3863V68.3763V68.3661V68.3559V68.3457V68.3354V68.325V68.3145V68.304V68.2934V68.2828V68.272V68.2613V68.2504V68.2395V68.2285V68.2175V68.2064V68.1952V68.184V68.1727V68.1614V68.15V68.1385V68.127V68.1154V68.1038V68.0921V68.0803V68.0685V68.0566V68.0447V68.0327V68.0206V68.0085V67.9964V67.9841V67.9719V67.9596V67.9472V67.9347V67.9223V67.9097V67.8971V67.8845V67.8718V67.859V67.8462V67.8334V67.8205V67.8075V67.7945V67.7815V67.7684V67.7552V67.742V67.7288V67.7155V67.7021V67.6888V67.6753V67.6618V67.6483V67.6348V67.6211V67.6075V67.5938V67.58V67.5662V67.5524V67.5385V67.5246V67.5106V67.4966V67.4826V67.4685V67.4544V67.4402V67.426V67.4118V67.3975V67.3832V67.3688V67.3544V67.34V67.3255V67.311V67.2964V67.2819V67.2672V67.2526V67.2379V67.2232V67.2084V67.1936V67.1788V67.164V67.1491V67.1341V67.1192V67.1042V67.0892V67.0742V67.0591V67.044V67.0288V67.0137V66.9985V66.9832V66.968V66.9527V66.9374V66.9221V66.9067V66.8913V66.8759V66.8605V66.845V66.8295V66.814V66.7985V66.7829V66.7673V66.7517V66.7361V66.7205V66.7048V66.6891V66.6734V66.6576V66.6419V66.6261V66.6103V66.5945V66.5787V66.5628V66.547V66.5311V66.5152V66.4992V66.4833V66.4674V66.4514V66.4354V66.4194V66.4034V66.3874V66.3713V66.3553V66.3392V66.3231V66.307V66.2909V66.2748V66.2587V66.2425V66.2264V66.2102V66.194V66.1779V66.1617V66.1455V66.1293V66.113V66.0968V66.0806V66.0644V66.0481V66.0319V66.0156V65.9994V65.9831V65.9668V65.9505V65.9343V65.918V65.9017V65.8854V65.8691V65.8528V65.8365V65.8203V65.804V65.7877V65.7714V65.7551V65.7388V65.7225V65.7062V65.6899V65.6736V65.6573V65.6411V65.6248V65.6085V65.5922V65.576V65.5597V65.5434V65.5272V65.511V65.4947V65.4785V65.4623V65.446V65.4298V65.4136V65.3974V65.3813V65.3651V65.3489V65.3328V65.3166V65.3005V65.2844V65.2682V65.2521V65.2361V65.22V65.2039V65.1879V65.1718V65.1558V65.1398V65.1238V65.1078V65.0919V65.0759V65.06V65.0441V65.0282V65.0123V64.9965V64.9806V64.9648V64.949V64.9332V64.9175V64.9017V64.886V64.8703V64.8546V64.839V64.8233V64.8077V64.7921V64.7765V64.761V64.7455V64.73V64.7145V64.6991V64.6836V64.6682V64.6529V64.6375V64.6222V64.6069V64.5917V64.5764V64.5612V64.546V64.5309V64.5158V64.5007V64.4856V64.4706V64.4556V64.4406V64.4257V64.4108V64.3959V64.3811V64.3663V64.3515V64.3368V64.3221V64.3074V64.2928V64.2782V64.2636V64.2491V64.2346V64.2202V64.2057V64.1914V64.177V64.1627V64.1485V64.1342V64.1201V64.1059V64.0918V64.0778V64.0637V64.0498V64.0358V64.0219V64.0081V63.9943V63.9805V63.9668V63.9531V63.9395V63.9259V63.9123V63.8988V63.8854V63.872V63.8586V63.8453V63.832V63.8188V63.8057V63.7925V63.7911H15.3837L18.2348 67.4569C17.8622 67.8599 17.6345 68.399 17.6345 68.9911C17.6345 70.2398 18.6468 71.252 19.8954 71.252C21.1441 71.252 22.1563 70.2398 22.1563 68.9911C22.1563 67.7647 21.1798 66.7664 19.9618 66.7312L16.5399 62.3316L16.2683 61.9824H15.826H7.4114L1.80864 55.7572V47.6455L4.91243 44.3477H11.6067C11.9976 45.0235 12.7283 45.4782 13.5651 45.4782C14.8138 45.4782 15.826 44.466 15.826 43.2174C15.826 41.9687 14.8138 40.9565 13.5651 40.9565C12.5528 40.9565 11.6959 41.6218 11.4078 42.539H4.9822L1.80864 38.1754V29.5845L7.37328 24.226H15.826H16.3225L16.589 23.8071L20.6843 17.3717C20.8656 17.4186 21.0558 17.4435 21.2519 17.4435C22.5005 17.4435 23.5127 16.4313 23.5127 15.1827C23.5127 13.934 22.5005 12.9218 21.2519 12.9218C20.0032 12.9218 18.991 13.934 18.991 15.1827C18.991 15.5673 19.087 15.9294 19.2564 16.2465L15.3296 22.4173H7.91298V16.2087L13.7409 9.75642H20.5738H20.9668L21.235 9.46912L27.2973 2.97381H33.4608V24.4521H20.5738H19.6695V25.3564V31.6868H12.5572C12.2691 30.7696 11.4122 30.1043 10.3998 30.1043C9.1512 30.1043 8.13897 31.1165 8.13897 32.3652C8.13897 33.6138 9.1512 34.626 10.3998 34.626C11.2367 34.626 11.9674 34.1713 12.3583 33.4955H19.6695ZM35.7012 33.7428L36.5603 35.87L39.3907 42.8787L41.3081 47.6265L39.631 48.3038L37.9421 44.1217H33.6472L32.0441 48.2898L30.3559 47.6405L32.182 42.8927L34.8777 35.884L35.7012 33.7428ZM34.3428 42.313H37.2116L35.7423 38.6745L34.3428 42.313ZM44.087 33.9476V47.965H45.8957V33.9476H44.087Z" fill="url(#paint0_linear_3100_644)"/>
<defs>
<linearGradient id="paint0_linear_3100_644" x1="14.057" y1="42.319" x2="65.7053" y2="42.319" gradientUnits="userSpaceOnUse">
<stop stop-color="#8778C7"/>
<stop offset="1" stop-color="#ABF8E7"/>
<stop offset="1" stop-color="#ABF8E7"/>
</linearGradient>
</defs>
</svg>
